solid STL
facet normal  1.000000E+000 -7.479799E-008  0.000000E+000
 outer loop
  vertex  2.550000E+001 -2.550000E+001  1.000000E+000
  vertex  2.550000E+001  2.550000E+001  1.000000E+000
  vertex  2.550000E+001  2.550000E+001  6.910000E+001
 endloop
endfacet
facet normal  1.000000E+000 -7.479799E-008  0.000000E+000
 outer loop
  vertex  2.550000E+001 -2.550000E+001  1.000000E+000
  vertex  2.550000E+001  2.550000E+001  6.910000E+001
  vertex  2.550000E+001 -2.550000E+001  6.910000E+001
 endloop
endfacet
facet normal  7.479799E-008  1.000000E+000  0.000000E+000
 outer loop
  vertex  2.550000E+001  2.550000E+001  1.000000E+000
  vertex -2.550000E+001  2.550000E+001  1.000000E+000
  vertex -2.550000E+001  2.550000E+001  6.910000E+001
 endloop
endfacet
facet normal  7.479799E-008  1.000000E+000  0.000000E+000
 outer loop
  vertex  2.550000E+001  2.550000E+001  1.000000E+000
  vertex -2.550000E+001  2.550000E+001  6.910000E+001
  vertex  2.550000E+001  2.550000E+001  6.910000E+001
 endloop
endfacet
facet normal -1.000000E+000  7.479799E-008  0.000000E+000
 outer loop
  vertex -2.550000E+001  2.550000E+001  1.000000E+000
  vertex -2.550000E+001 -2.550000E+001  1.000000E+000
  vertex -2.550000E+001 -2.550000E+001  6.910000E+001
 endloop
endfacet
facet normal -1.000000E+000  7.479799E-008  0.000000E+000
 outer loop
  vertex -2.550000E+001  2.550000E+001  1.000000E+000
  vertex -2.550000E+001 -2.550000E+001  6.910000E+001
  vertex -2.550000E+001  2.550000E+001  6.910000E+001
 endloop
endfacet
facet normal -7.479799E-008 -1.000000E+000  0.000000E+000
 outer loop
  vertex -2.550000E+001 -2.550000E+001  1.000000E+000
  vertex  2.550000E+001 -2.550000E+001  1.000000E+000
  vertex  2.550000E+001 -2.550000E+001  6.910000E+001
 endloop
endfacet
facet normal -7.479799E-008 -1.000000E+000 -0.000000E+000
 outer loop
  vertex -2.550000E+001 -2.550000E+001  1.000000E+000
  vertex  2.550000E+001 -2.550000E+001  6.910000E+001
  vertex -2.550000E+001 -2.550000E+001  6.910000E+001
 endloop
endfacet
facet normal -1.000000E+000  7.649493E-008  0.000000E+000
 outer loop
  vertex  2.493432E+001  2.493431E+001  6.910000E+001
  vertex  2.493432E+001  2.493431E+001  1.000000E+000
  vertex  2.493431E+001 -2.493431E+001  1.000000E+000
 endloop
endfacet
facet normal -1.000000E+000  7.649493E-008  0.000000E+000
 outer loop
  vertex  2.493431E+001 -2.493431E+001  6.910000E+001
  vertex  2.493432E+001  2.493431E+001  6.910000E+001
  vertex  2.493431E+001 -2.493431E+001  1.000000E+000
 endloop
endfacet
facet normal -7.649493E-008 -1.000000E+000  0.000000E+000
 outer loop
  vertex -2.493431E+001  2.493432E+001  6.910000E+001
  vertex -2.493431E+001  2.493432E+001  1.000000E+000
  vertex  2.493432E+001  2.493431E+001  1.000000E+000
 endloop
endfacet
facet normal -7.649493E-008 -1.000000E+000  0.000000E+000
 outer loop
  vertex  2.493432E+001  2.493431E+001  6.910000E+001
  vertex -2.493431E+001  2.493432E+001  6.910000E+001
  vertex  2.493432E+001  2.493431E+001  1.000000E+000
 endloop
endfacet
facet normal  1.000000E+000 -7.649493E-008  0.000000E+000
 outer loop
  vertex -2.493431E+001 -2.493431E+001  6.910000E+001
  vertex -2.493431E+001 -2.493431E+001  1.000000E+000
  vertex -2.493431E+001  2.493432E+001  1.000000E+000
 endloop
endfacet
facet normal  1.000000E+000 -7.649493E-008  0.000000E+000
 outer loop
  vertex -2.493431E+001  2.493432E+001  6.910000E+001
  vertex -2.493431E+001 -2.493431E+001  6.910000E+001
  vertex -2.493431E+001  2.493432E+001  1.000000E+000
 endloop
endfacet
facet normal  7.649493E-008  1.000000E+000 -0.000000E+000
 outer loop
  vertex  2.493431E+001 -2.493431E+001  6.910000E+001
  vertex  2.493431E+001 -2.493431E+001  1.000000E+000
  vertex -2.493431E+001 -2.493431E+001  1.000000E+000
 endloop
endfacet
facet normal  7.649493E-008  1.000000E+000 -0.000000E+000
 outer loop
  vertex -2.493431E+001 -2.493431E+001  6.910000E+001
  vertex  2.493431E+001 -2.493431E+001  6.910000E+001
  vertex -2.493431E+001 -2.493431E+001  1.000000E+000
 endloop
endfacet
facet normal  0.000000E+000  0.000000E+000 -1.000000E+000
 outer loop
  vertex  2.550000E+001  2.550000E+001  1.000000E+000
  vertex  2.550000E+001 -2.550000E+001  1.000000E+000
  vertex  2.493431E+001 -2.493431E+001  1.000000E+000
 endloop
endfacet
facet normal  0.000000E+000  0.000000E+000 -1.000000E+000
 outer loop
  vertex  2.493431E+001 -2.493431E+001  1.000000E+000
  vertex  2.493432E+001  2.493431E+001  1.000000E+000
  vertex  2.550000E+001  2.550000E+001  1.000000E+000
 endloop
endfacet
facet normal  0.000000E+000  0.000000E+000  1.000000E+000
 outer loop
  vertex  2.550000E+001 -2.550000E+001  6.910000E+001
  vertex  2.550000E+001  2.550000E+001  6.910000E+001
  vertex  2.493432E+001  2.493431E+001  6.910000E+001
 endloop
endfacet
facet normal  0.000000E+000 -0.000000E+000  1.000000E+000
 outer loop
  vertex  2.493432E+001  2.493431E+001  6.910000E+001
  vertex  2.493431E+001 -2.493431E+001  6.910000E+001
  vertex  2.550000E+001 -2.550000E+001  6.910000E+001
 endloop
endfacet
facet normal  0.000000E+000  0.000000E+000 -1.000000E+000
 outer loop
  vertex -2.550000E+001  2.550000E+001  1.000000E+000
  vertex  2.550000E+001  2.550000E+001  1.000000E+000
  vertex  2.493432E+001  2.493431E+001  1.000000E+000
 endloop
endfacet
facet normal  0.000000E+000  0.000000E+000 -1.000000E+000
 outer loop
  vertex  2.493432E+001  2.493431E+001  1.000000E+000
  vertex -2.493431E+001  2.493432E+001  1.000000E+000
  vertex -2.550000E+001  2.550000E+001  1.000000E+000
 endloop
endfacet
facet normal -0.000000E+000  0.000000E+000  1.000000E+000
 outer loop
  vertex  2.550000E+001  2.550000E+001  6.910000E+001
  vertex -2.550000E+001  2.550000E+001  6.910000E+001
  vertex -2.493431E+001  2.493432E+001  6.910000E+001
 endloop
endfacet
facet normal  0.000000E+000  0.000000E+000  1.000000E+000
 outer loop
  vertex -2.493431E+001  2.493432E+001  6.910000E+001
  vertex  2.493432E+001  2.493431E+001  6.910000E+001
  vertex  2.550000E+001  2.550000E+001  6.910000E+001
 endloop
endfacet
facet normal  0.000000E+000  0.000000E+000 -1.000000E+000
 outer loop
  vertex -2.550000E+001 -2.550000E+001  1.000000E+000
  vertex -2.550000E+001  2.550000E+001  1.000000E+000
  vertex -2.493431E+001  2.493432E+001  1.000000E+000
 endloop
endfacet
facet normal  0.000000E+000  0.000000E+000 -1.000000E+000
 outer loop
  vertex -2.493431E+001  2.493432E+001  1.000000E+000
  vertex -2.493431E+001 -2.493431E+001  1.000000E+000
  vertex -2.550000E+001 -2.550000E+001  1.000000E+000
 endloop
endfacet
facet normal  0.000000E+000 -0.000000E+000  1.000000E+000
 outer loop
  vertex -2.550000E+001  2.550000E+001  6.910000E+001
  vertex -2.550000E+001 -2.550000E+001  6.910000E+001
  vertex -2.493431E+001 -2.493431E+001  6.910000E+001
 endloop
endfacet
facet normal  0.000000E+000  0.000000E+000  1.000000E+000
 outer loop
  vertex -2.493431E+001 -2.493431E+001  6.910000E+001
  vertex -2.493431E+001  2.493432E+001  6.910000E+001
  vertex -2.550000E+001  2.550000E+001  6.910000E+001
 endloop
endfacet
facet normal  0.000000E+000  0.000000E+000 -1.000000E+000
 outer loop
  vertex  2.550000E+001 -2.550000E+001  1.000000E+000
  vertex -2.550000E+001 -2.550000E+001  1.000000E+000
  vertex -2.493431E+001 -2.493431E+001  1.000000E+000
 endloop
endfacet
facet normal  0.000000E+000  0.000000E+000 -1.000000E+000
 outer loop
  vertex -2.493431E+001 -2.493431E+001  1.000000E+000
  vertex  2.493431E+001 -2.493431E+001  1.000000E+000
  vertex  2.550000E+001 -2.550000E+001  1.000000E+000
 endloop
endfacet
facet normal  0.000000E+000  0.000000E+000  1.000000E+000
 outer loop
  vertex -2.550000E+001 -2.550000E+001  6.910000E+001
  vertex  2.550000E+001 -2.550000E+001  6.910000E+001
  vertex  2.493431E+001 -2.493431E+001  6.910000E+001
 endloop
endfacet
facet normal -0.000000E+000  0.000000E+000  1.000000E+000
 outer loop
  vertex  2.493431E+001 -2.493431E+001  6.910000E+001
  vertex -2.493431E+001 -2.493431E+001  6.910000E+001
  vertex -2.550000E+001 -2.550000E+001  6.910000E+001
 endloop
endfacet
facet normal  0.000000E+000  0.000000E+000 -1.000000E+000
 outer loop
  vertex -2.550000E+001  2.550000E+001  0.000000E+000
  vertex  2.550000E+001  2.550000E+001  0.000000E+000
  vertex  2.550000E+001 -2.550000E+001  0.000000E+000
 endloop
endfacet
facet normal  0.000000E+000  0.000000E+000 -1.000000E+000
 outer loop
  vertex  2.550000E+001 -2.550000E+001  0.000000E+000
  vertex -2.550000E+001 -2.550000E+001  0.000000E+000
  vertex -2.550000E+001  2.550000E+001  0.000000E+000
 endloop
endfacet
facet normal  0.000000E+000 -0.000000E+000  1.000000E+000
 outer loop
  vertex -2.550000E+001  2.550000E+001  1.000000E+000
  vertex -2.550000E+001 -2.550000E+001  1.000000E+000
  vertex  2.550000E+001 -2.550000E+001  1.000000E+000
 endloop
endfacet
facet normal  0.000000E+000  0.000000E+000  1.000000E+000
 outer loop
  vertex  2.550000E+001 -2.550000E+001  1.000000E+000
  vertex  2.550000E+001  2.550000E+001  1.000000E+000
  vertex -2.550000E+001  2.550000E+001  1.000000E+000
 endloop
endfacet
facet normal -1.000000E+000  7.479799E-008  0.000000E+000
 outer loop
  vertex -2.550000E+001  2.550000E+001  0.000000E+000
  vertex -2.550000E+001 -2.550000E+001  0.000000E+000
  vertex -2.550000E+001 -2.550000E+001  1.000000E+000
 endloop
endfacet
facet normal -1.000000E+000  7.479799E-008  0.000000E+000
 outer loop
  vertex -2.550000E+001 -2.550000E+001  1.000000E+000
  vertex -2.550000E+001  2.550000E+001  1.000000E+000
  vertex -2.550000E+001  2.550000E+001  0.000000E+000
 endloop
endfacet
facet normal -7.479799E-008 -1.000000E+000  0.000000E+000
 outer loop
  vertex -2.550000E+001 -2.550000E+001  0.000000E+000
  vertex  2.550000E+001 -2.550000E+001  0.000000E+000
  vertex  2.550000E+001 -2.550000E+001  1.000000E+000
 endloop
endfacet
facet normal -7.479799E-008 -1.000000E+000  0.000000E+000
 outer loop
  vertex  2.550000E+001 -2.550000E+001  1.000000E+000
  vertex -2.550000E+001 -2.550000E+001  1.000000E+000
  vertex -2.550000E+001 -2.550000E+001  0.000000E+000
 endloop
endfacet
facet normal  1.000000E+000 -7.479799E-008  0.000000E+000
 outer loop
  vertex  2.550000E+001 -2.550000E+001  0.000000E+000
  vertex  2.550000E+001  2.550000E+001  0.000000E+000
  vertex  2.550000E+001  2.550000E+001  1.000000E+000
 endloop
endfacet
facet normal  1.000000E+000 -7.479799E-008  0.000000E+000
 outer loop
  vertex  2.550000E+001  2.550000E+001  1.000000E+000
  vertex  2.550000E+001 -2.550000E+001  1.000000E+000
  vertex  2.550000E+001 -2.550000E+001  0.000000E+000
 endloop
endfacet
facet normal  7.479799E-008  1.000000E+000  0.000000E+000
 outer loop
  vertex  2.550000E+001  2.550000E+001  0.000000E+000
  vertex -2.550000E+001  2.550000E+001  0.000000E+000
  vertex -2.550000E+001  2.550000E+001  1.000000E+000
 endloop
endfacet
facet normal  7.479799E-008  1.000000E+000  0.000000E+000
 outer loop
  vertex -2.550000E+001  2.550000E+001  1.000000E+000
  vertex  2.550000E+001  2.550000E+001  1.000000E+000
  vertex  2.550000E+001  2.550000E+001  0.000000E+000
 endloop
endfacet
endsolid STL
